<svg width="86" height="86" viewBox="0 0 86 86" fill="none" xmlns="http://www.w3.org/2000/svg">
<mask id="mask0_102_175" style="mask-type:alpha" maskUnits="userSpaceOnUse" x="0" y="0" width="86" height="86">
<rect width="86" height="86" fill="#D9D9D9"/>
</mask>
<g mask="url(#mask0_102_175)">
<path d="M14.7613 74V29.5667L8 14.9278L14.2412 12L22.3894 29.3944H62.6106L70.7588 12L77 14.9278L70.2387 29.5667V74H14.7613ZM35.5653 49.8889H49.4347C50.4171 49.8889 51.2406 49.5588 51.9052 48.8986C52.5697 48.2384 52.902 47.4204 52.902 46.4444C52.902 45.4685 52.5697 44.6505 51.9052 43.9903C51.2406 43.3301 50.4171 43 49.4347 43H35.5653C34.5829 43 33.7594 43.3301 33.0948 43.9903C32.4303 44.6505 32.098 45.4685 32.098 46.4444C32.098 47.4204 32.4303 48.2384 33.0948 48.8986C33.7594 49.5588 34.5829 49.8889 35.5653 49.8889ZM21.696 67.1111H63.304V36.2833H21.696V67.1111Z" fill="#FEEA57"/>
</g>
</svg>
