<svg width="86" height="86" viewBox="0 0 86 86" fill="none" xmlns="http://www.w3.org/2000/svg">
<mask id="mask0_100_157" style="mask-type:alpha" maskUnits="userSpaceOnUse" x="0" y="0" width="86" height="86">
<rect width="86" height="86" fill="#D9D9D9"/>
</mask>
<g mask="url(#mask0_100_157)">
<path d="M39.4167 69.6062V45.0604L17.9167 32.6083V57.1541L39.4167 69.6062ZM46.5833 69.6062L68.0833 57.1541V32.6083L46.5833 45.0604V69.6062ZM39.4167 77.8479L14.3333 63.425C13.1986 62.768 12.3177 61.902 11.6906 60.827C11.0635 59.752 10.75 58.5576 10.75 57.2437V28.7562C10.75 27.4423 11.0635 26.2479 11.6906 25.1729C12.3177 24.0979 13.1986 23.2319 14.3333 22.575L39.4167 8.15204C40.5514 7.4951 41.7458 7.16663 43 7.16663C44.2542 7.16663 45.4486 7.4951 46.5833 8.15204L71.6667 22.575C72.8014 23.2319 73.6823 24.0979 74.3094 25.1729C74.9365 26.2479 75.25 27.4423 75.25 28.7562V57.2437C75.25 58.5576 74.9365 59.752 74.3094 60.827C73.6823 61.902 72.8014 62.768 71.6667 63.425L46.5833 77.8479C45.4486 78.5048 44.2542 78.8333 43 78.8333C41.7458 78.8333 40.5514 78.5048 39.4167 77.8479ZM57.3333 30.5479L64.2312 26.6062L43 14.3333L36.0125 18.3645L57.3333 30.5479ZM43 38.8791L49.9875 34.8479L28.7562 22.575L21.7687 26.6062L43 38.8791Z" fill="#FEEA57"/>
</g>
</svg>
